<svg width="15" height="17" viewBox="0 0 15 17" fill="none" xmlns="http://www.w3.org/2000/svg">
<path d="M8.7975 15C8.66564 15.2273 8.47638 15.416 8.24867 15.5471C8.02096 15.6783 7.76278 15.7473 7.5 15.7473C7.23722 15.7473 6.97904 15.6783 6.75133 15.5471C6.52362 15.416 6.33436 15.2273 6.2025 15M12 5.25C12 4.05653 11.5259 2.91193 10.682 2.06802C9.83807 1.22411 8.69347 0.75 7.5 0.75C6.30653 0.75 5.16193 1.22411 4.31802 2.06802C3.47411 2.91193 3 4.05653 3 5.25C3 10.5 0.75 12 0.75 12H14.25C14.25 12 12 10.5 12 5.25Z" stroke="#333333" stroke-width="1.5" stroke-linecap="round" stroke-linejoin="round"/>
</svg>
