<svg width="21" height="21" viewBox="0 0 21 21" fill="none" xmlns="http://www.w3.org/2000/svg">
<path d="M10.3238 6.02229C10.3238 5.10962 9.96123 4.23432 9.31587 3.58897C8.67052 2.94361 7.79523 2.58105 6.88255 2.58105H1.7207V15.4857H7.74286C8.42737 15.4857 9.08383 15.7576 9.56785 16.2416C10.0519 16.7256 10.3238 17.3821 10.3238 18.0666M10.3238 6.02229V18.0666M10.3238 6.02229C10.3238 5.10962 10.6863 4.23432 11.3317 3.58897C11.9771 2.94361 12.8523 2.58105 13.765 2.58105H18.9269V15.4857H12.9047C12.2202 15.4857 11.5637 15.7576 11.0797 16.2416C10.5957 16.7256 10.3238 17.3821 10.3238 18.0666" stroke="#333333" stroke-width="1.5" stroke-linecap="round" stroke-linejoin="round"/>
</svg>
