<svg width="17" height="17" viewBox="0 0 17 17" fill="none" xmlns="http://www.w3.org/2000/svg">
<path d="M2.97222 10.3796H2.23148C1.83857 10.3796 1.46175 10.2235 1.18392 9.94571C0.906084 9.66788 0.75 9.29106 0.75 8.89815V2.23148C0.75 1.83857 0.906084 1.46175 1.18392 1.18392C1.46175 0.906084 1.83857 0.75 2.23148 0.75H8.89815C9.29106 0.75 9.66788 0.906084 9.94571 1.18392C10.2235 1.46175 10.3796 1.83857 10.3796 2.23148V2.97222M7.41667 5.93518H14.0833C14.9015 5.93518 15.5648 6.59847 15.5648 7.41667V14.0833C15.5648 14.9015 14.9015 15.5648 14.0833 15.5648H7.41667C6.59847 15.5648 5.93518 14.9015 5.93518 14.0833V7.41667C5.93518 6.59847 6.59847 5.93518 7.41667 5.93518Z" stroke="#333333" stroke-width="1.5" stroke-linecap="round" stroke-linejoin="round"/>
</svg>
