<svg width="17" height="17" viewBox="0 0 17 17" fill="none" xmlns="http://www.w3.org/2000/svg">
<path d="M7.5 2.34099H2.25C1.85218 2.34099 1.47064 2.49903 1.18934 2.78033C0.908035 3.06163 0.75 3.44317 0.75 3.84099V14.341C0.75 14.7388 0.908035 15.1203 1.18934 15.4017C1.47064 15.683 1.85218 15.841 2.25 15.841H12.75C13.1478 15.841 13.5294 15.683 13.8107 15.4017C14.092 15.1203 14.25 14.7388 14.25 14.341V9.09099M13.125 1.21599C13.4234 0.917622 13.828 0.75 14.25 0.75C14.672 0.75 15.0766 0.917622 15.375 1.21599C15.6734 1.51436 15.841 1.91903 15.841 2.34099C15.841 2.76295 15.6734 3.16762 15.375 3.46599L8.25 10.591L5.25 11.341L6 8.34099L13.125 1.21599Z" stroke="#333333" stroke-width="1.5" stroke-linecap="round" stroke-linejoin="round"/>
</svg>
