<svg width="20" height="20" viewBox="0 0 20 20" fill="none" xmlns="http://www.w3.org/2000/svg">
<path d="M14.9165 14.9174C13.492 16.0033 11.7574 16.6048 9.96647 16.6341C4.13314 16.6341 0.799805 9.96745 0.799805 9.96745C1.83638 8.03569 3.27408 6.34795 5.01647 5.01745M8.21647 3.50078C8.79008 3.36651 9.37736 3.2994 9.96647 3.30078C15.7998 3.30078 19.1331 9.96745 19.1331 9.96745C18.6273 10.9138 18.024 11.8047 17.3331 12.6258M11.7331 11.7341C11.5043 11.9797 11.2283 12.1767 10.9216 12.3134C10.6149 12.45 10.2839 12.5235 9.94821 12.5294C9.61254 12.5353 9.27911 12.4736 8.96781 12.3479C8.65652 12.2221 8.37374 12.035 8.13634 11.7976C7.89895 11.5602 7.7118 11.2774 7.58606 10.9661C7.46032 10.6548 7.39858 10.3214 7.4045 9.98571C7.41042 9.65003 7.48389 9.31899 7.62053 9.01232C7.75717 8.70566 7.95418 8.42965 8.1998 8.20078M0.799805 0.800781L19.1331 19.1341" stroke="#A6A6A6" stroke-width="1.6" stroke-linecap="round" stroke-linejoin="round"/>
</svg>
