<svg width="18" height="22" viewBox="0 0 18 22" fill="none" xmlns="http://www.w3.org/2000/svg">
<path d="M11.0772 1H3.60449C3.10903 1 2.63385 1.21071 2.2835 1.58579C1.93315 1.96086 1.73633 2.46957 1.73633 3V19C1.73633 19.5304 1.93315 20.0391 2.2835 20.4142C2.63385 20.7893 3.10903 21 3.60449 21H14.8135C15.309 21 15.7841 20.7893 16.1345 20.4142C16.4848 20.0391 16.6817 19.5304 16.6817 19V7M11.0772 1L16.6817 7M11.0772 1V7H16.6817M12.9453 12H5.47266M12.9453 16H5.47266M7.34083 8H5.47266" stroke="#6C6C6C" stroke-width="1.5" stroke-linecap="round" stroke-linejoin="round"/>
</svg>
