<svg width="20" height="20" viewBox="0 0 20 20" fill="none" xmlns="http://www.w3.org/2000/svg">
<g clip-path="url(#clip0_2902_599)">
<path d="M8.78556 0.793469C8.69941 0.742014 8.60094 0.714844 8.5006 0.714844C8.40026 0.714844 8.3018 0.742014 8.21566 0.793469C8.1446 0.849767 8.09666 0.930164 8.0809 1.01944C8.06516 1.10871 8.08269 1.20066 8.13017 1.27788C9.8826 4.31256 10.253 8.44429 7.85947 10.7239C6.93856 9.94997 6.20744 8.97516 5.72237 7.8744C4.83723 8.366 4.10367 9.09069 3.60133 9.96979C3.09899 10.8489 2.84706 11.8488 2.8729 12.861C2.90904 13.7532 3.12329 14.6293 3.50303 15.4376C3.88277 16.2458 4.42034 16.9698 5.08411 17.5673C5.74789 18.1647 6.52444 18.6233 7.36809 18.9161C8.21174 19.2088 9.10543 19.33 9.99657 19.2723C14.5842 19.2723 16.9635 16.4228 17.1202 12.861C17.3055 8.58676 14.2708 3.3295 8.78556 0.793469Z" stroke="#333333" stroke-width="1.5" stroke-linecap="round" stroke-linejoin="round"/>
</g>
<defs>
<clipPath id="clip0_2902_599">
<rect width="20" height="20" fill="white"/>
</clipPath>
</defs>
</svg>
