<svg width="18" height="9" viewBox="0 0 18 9" fill="none" xmlns="http://www.w3.org/2000/svg">
<path d="M11.25 0.75H13.5C13.9925 0.75 14.4801 0.846997 14.9351 1.03545C15.39 1.22391 15.8034 1.50013 16.1517 1.84835C16.4999 2.19657 16.7761 2.60997 16.9645 3.06494C17.153 3.51991 17.25 4.00754 17.25 4.5C17.25 4.99246 17.153 5.48009 16.9645 5.93506C16.7761 6.39003 16.4999 6.80343 16.1517 7.15165C15.8034 7.49987 15.39 7.77609 14.9351 7.96455C14.4801 8.153 13.9925 8.25 13.5 8.25H11.25M6.75 8.25H4.5C4.00754 8.25 3.51991 8.153 3.06494 7.96455C2.60997 7.77609 2.19657 7.49987 1.84835 7.15165C1.14509 6.44839 0.75 5.49456 0.75 4.5C0.75 3.50544 1.14509 2.55161 1.84835 1.84835C2.55161 1.14509 3.50544 0.75 4.5 0.75H6.75M6 4.5H12" stroke="#333333" stroke-width="1.5" stroke-linecap="round" stroke-linejoin="round"/>
</svg>
