<svg width="17" height="19" viewBox="0 0 17 19" fill="none" xmlns="http://www.w3.org/2000/svg">
<path d="M4.08333 8.25V4.91667C4.08333 3.8116 4.52232 2.75179 5.30372 1.97039C6.08512 1.18899 7.14493 0.75 8.25 0.75C9.35507 0.75 10.4149 1.18899 11.1963 1.97039C11.9777 2.75179 12.4167 3.8116 12.4167 4.91667V8.25M2.41667 8.25H14.0833C15.0038 8.25 15.75 8.99619 15.75 9.91667V15.75C15.75 16.6705 15.0038 17.4167 14.0833 17.4167H2.41667C1.49619 17.4167 0.75 16.6705 0.75 15.75V9.91667C0.75 8.99619 1.49619 8.25 2.41667 8.25Z" stroke="#A6A6A6" stroke-width="1.5" stroke-linecap="round" stroke-linejoin="round"/>
</svg>
