<svg width="4" height="15" viewBox="0 0 4 15" fill="none" xmlns="http://www.w3.org/2000/svg">
<path d="M3.375 12.9375C3.375 13.3851 3.19721 13.8143 2.88074 14.1307C2.56428 14.4472 2.13505 14.625 1.6875 14.625C1.23995 14.625 0.810725 14.4472 0.494257 14.1307C0.177789 13.8143 0 13.3851 0 12.9375C0 12.4899 0.177789 12.0607 0.494257 11.7443C0.810725 11.4278 1.23995 11.25 1.6875 11.25C2.13505 11.25 2.56428 11.4278 2.88074 11.7443C3.19721 12.0607 3.375 12.4899 3.375 12.9375ZM3.375 7.3125C3.375 7.76005 3.19721 8.18928 2.88074 8.50574C2.56428 8.82221 2.13505 9 1.6875 9C1.23995 9 0.810725 8.82221 0.494257 8.50574C0.177789 8.18928 0 7.76005 0 7.3125C0 6.86495 0.177789 6.43572 0.494257 6.11926C0.810725 5.80279 1.23995 5.625 1.6875 5.625C2.13505 5.625 2.56428 5.80279 2.88074 6.11926C3.19721 6.43572 3.375 6.86495 3.375 7.3125ZM3.375 1.6875C3.375 2.13505 3.19721 2.56428 2.88074 2.88074C2.56428 3.19721 2.13505 3.375 1.6875 3.375C1.23995 3.375 0.810725 3.19721 0.494257 2.88074C0.177789 2.56428 0 2.13505 0 1.6875C0 1.23995 0.177789 0.810725 0.494257 0.494257C0.810725 0.17779 1.23995 0 1.6875 0C2.13505 0 2.56428 0.17779 2.88074 0.494257C3.19721 0.810725 3.375 1.23995 3.375 1.6875Z" fill="#333333"/>
</svg>
