<svg width="17" height="17" viewBox="0 0 17 17" fill="none" xmlns="http://www.w3.org/2000/svg">
<path d="M15.7857 9.71429H9.71429V15.7857C9.71429 16.1078 9.58635 16.4166 9.35863 16.6443C9.13091 16.8721 8.82205 17 8.5 17C8.17795 17 7.86909 16.8721 7.64137 16.6443C7.41365 16.4166 7.28571 16.1078 7.28571 15.7857V9.71429H1.21429C0.892237 9.71429 0.583379 9.58635 0.355656 9.35863C0.127934 9.13091 0 8.82205 0 8.5C0 8.17795 0.127934 7.86909 0.355656 7.64137C0.583379 7.41365 0.892237 7.28571 1.21429 7.28571H7.28571V1.21429C7.28571 0.892237 7.41365 0.583378 7.64137 0.355656C7.86909 0.127933 8.17795 0 8.5 0C8.82205 0 9.13091 0.127933 9.35863 0.355656C9.58635 0.583378 9.71429 0.892237 9.71429 1.21429V7.28571H15.7857C16.1078 7.28571 16.4166 7.41365 16.6443 7.64137C16.8721 7.86909 17 8.17795 17 8.5C17 8.82205 16.8721 9.13091 16.6443 9.35863C16.4166 9.58635 16.1078 9.71429 15.7857 9.71429Z" fill="#333333"/>
</svg>
