<svg width="17" height="15" viewBox="0 0 17 15" fill="none" xmlns="http://www.w3.org/2000/svg">
<path d="M0.75 1.493V5.993M0.75 5.993H5.25M0.75 5.993L4.23 2.723C5.26568 1.68907 6.60934 1.01973 8.05851 0.815841C9.50768 0.611951 10.9839 0.884554 12.2646 1.59258C13.5454 2.3006 14.5614 3.40569 15.1595 4.74133C15.7576 6.07697 15.9054 7.57081 15.5807 8.99777C15.2559 10.4247 14.4763 11.7075 13.3591 12.6528C12.2419 13.5981 10.8478 14.1548 9.38679 14.2389C7.92576 14.3229 6.47698 13.9299 5.25874 13.119C4.0405 12.3081 3.1188 11.1233 2.6325 9.743" stroke="#333333" stroke-width="1.5" stroke-linecap="round" stroke-linejoin="round"/>
</svg>
