<svg width="22" height="24" viewBox="0 0 22 24" fill="none" xmlns="http://www.w3.org/2000/svg">
<path d="M1 5.36707H3.18354M3.18354 5.36707H20.6518M3.18354 5.36707V20.6518C3.18354 21.2309 3.41359 21.7863 3.82308 22.1958C4.23257 22.6053 4.78796 22.8354 5.36707 22.8354H16.2847C16.8639 22.8354 17.4192 22.6053 17.8287 22.1958C18.2382 21.7863 18.4683 21.2309 18.4683 20.6518V5.36707M6.45884 5.36707V3.18354C6.45884 2.60443 6.68889 2.04903 7.09838 1.63954C7.50787 1.23005 8.06326 1 8.64237 1H13.0094C13.5886 1 14.1439 1.23005 14.5534 1.63954C14.9629 2.04903 15.193 2.60443 15.193 3.18354V5.36707M8.64237 10.8259V17.3765M13.0094 10.8259V17.3765" stroke="#333333" stroke-width="2" stroke-linecap="round" stroke-linejoin="round"/>
</svg>
